#N canvas 200 200 1000 700 12;
#X text 10 10 MIDI-Controlled Flanger - TEST MODE;
#X text 10 30 Test mode: 440Hz tone with auto-sweeping flanger;
#X obj 50 200 osc~ 440;
#X obj 50 220 *~ 0.3;
#X text 150 200 Test tone: 440Hz @ 30% volume;
#X obj 50 250 hip~ 5;
#X obj 100 250 hip~ 5;
#X obj 50 300 flanger-stereo~;
#X obj 50 500 dac~ 1 2;
#X obj 50 360 s scope-channel-0;
#X obj 100 360 s scope-channel-1;
#X text 10 580 Open Bela Scope to see waveforms;
#X text 10 50 AUTO SWEEP CONTROLS;
#X obj 500 50 metro 50;
#X obj 500 30 loadbang;
#X msg 500 40 1;
#X obj 500 80 osc~ 0.1;
#X obj 500 100 snapshot~;
#X obj 500 120 * 0.5;
#X obj 500 140 + 0.5;
#X obj 500 160 * 9.9;
#X obj 500 180 + 0.1;
#X obj 500 200 s flanger-rate;
#X text 620 80 Auto Rate: 0.1-10 Hz;
#X obj 500 240 osc~ 0.15;
#X obj 500 260 snapshot~;
#X obj 500 280 * 0.5;
#X obj 500 300 + 0.5;
#X obj 500 320 * 10;
#X obj 500 340 s flanger-depth;
#X text 620 240 Auto Depth: 0-10 ms;
#X obj 500 380 osc~ 0.08;
#X obj 500 400 snapshot~;
#X obj 500 420 * 0.5;
#X obj 500 440 + 0.5;
#X obj 500 460 * 0.7;
#X obj 500 480 s flanger-feedback;
#X text 620 380 Auto Feedback: 0-0.7;
#X obj 500 520 osc~ 0.12;
#X obj 500 540 snapshot~;
#X obj 500 560 * 0.5;
#X obj 500 580 + 0.5;
#X obj 500 600 s flanger-mix;
#X text 620 520 Auto Mix: 0-100%;
#X text 10 610 MIDI still works - CC values override auto-sweep;
#X obj 700 100 ctlin 1;
#X obj 700 120 / 127;
#X obj 700 140 * 9.9;
#X obj 700 160 + 0.1;
#X obj 700 180 s flanger-rate;
#X obj 700 220 ctlin 2;
#X obj 700 240 / 127;
#X obj 700 260 * 10;
#X obj 700 280 s flanger-depth;
#X obj 700 320 ctlin 3;
#X obj 700 340 / 127;
#X obj 700 360 * 0.9;
#X obj 700 380 s flanger-feedback;
#X obj 700 420 ctlin 4;
#X obj 700 440 / 127;
#X obj 700 460 s flanger-mix;
#X text 820 100 CC1: Rate;
#X text 820 220 CC2: Depth;
#X text 820 320 CC3: Feedback;
#X text 820 420 CC4: Mix;
#X connect 2 0 3 0;
#X connect 3 0 5 0;
#X connect 3 0 6 0;
#X connect 5 0 7 0;
#X connect 5 0 9 0;
#X connect 6 0 7 1;
#X connect 6 0 10 0;
#X connect 7 0 8 0;
#X connect 7 1 8 1;
#X connect 13 0 17 0;
#X connect 13 0 25 0;
#X connect 13 0 32 0;
#X connect 13 0 39 0;
#X connect 14 0 15 0;
#X connect 15 0 13 0;
#X connect 16 0 17 0;
#X connect 17 0 18 0;
#X connect 18 0 19 0;
#X connect 19 0 20 0;
#X connect 20 0 21 0;
#X connect 21 0 22 0;
#X connect 24 0 25 0;
#X connect 25 0 26 0;
#X connect 26 0 27 0;
#X connect 27 0 28 0;
#X connect 28 0 29 0;
#X connect 31 0 32 0;
#X connect 32 0 33 0;
#X connect 33 0 34 0;
#X connect 34 0 35 0;
#X connect 35 0 36 0;
#X connect 38 0 39 0;
#X connect 39 0 40 0;
#X connect 40 0 41 0;
#X connect 41 0 42 0;
#X connect 45 0 46 0;
#X connect 46 0 47 0;
#X connect 47 0 48 0;
#X connect 48 0 49 0;
#X connect 50 0 51 0;
#X connect 51 0 52 0;
#X connect 52 0 53 0;
#X connect 54 0 55 0;
#X connect 55 0 56 0;
#X connect 56 0 57 0;
#X connect 58 0 59 0;
#X connect 59 0 60 0;
