#N canvas 0 0 800 600 12;
#X obj 50 50 inlet~;
#X obj 100 50 inlet~;
#X obj 50 500 outlet~;
#X obj 100 500 outlet~;
#X text 200 20 Stereo Flanger Effect;
#X obj 300 100 r flanger-rate;
#X obj 300 120 pack 0 20;
#X obj 300 140 line~;
#X obj 300 160 osc~;
#X obj 300 200 r flanger-depth;
#X obj 300 220 pack 0 20;
#X obj 300 240 line~;
#X obj 300 180 *~;
#X obj 300 260 +~ 5;
#X obj 50 150 delwrite~ flanger-left 50;
#X obj 100 150 delwrite~ flanger-right 50;
#X obj 50 250 vd~ flanger-left;
#X obj 100 250 vd~ flanger-right;
#X obj 300 300 r flanger-feedback;
#X obj 300 320 pack 0 20;
#X obj 300 340 line~;
#X obj 50 300 *~;
#X obj 100 300 *~;
#X obj 50 350 +~;
#X obj 100 350 +~;
#X obj 50 400 *~ 0.5;
#X obj 100 400 *~ 0.5;
#X text 200 100 LFO for modulation;
#X text 200 250 Variable delay lines with vd~;
#X text 200 400 Scale output;
#X obj 350 160 osc~;
#X obj 350 200 *~;
#X obj 350 140 *~ -1;
#X text 450 160 Inverted LFO for stereo width;
#X obj 350 260 +~ 5;
#X connect 0 0 14 0;
#X connect 0 0 23 0;
#X connect 1 0 15 0;
#X connect 1 0 24 0;
#X connect 5 0 6 0;
#X connect 6 0 7 0;
#X connect 7 0 8 0;
#X connect 7 0 32 0;
#X connect 8 0 12 0;
#X connect 9 0 10 0;
#X connect 10 0 11 0;
#X connect 11 0 12 1;
#X connect 11 0 31 1;
#X connect 12 0 13 0;
#X connect 13 0 16 0;
#X connect 16 0 21 0;
#X connect 17 0 22 0;
#X connect 18 0 19 0;
#X connect 19 0 20 0;
#X connect 20 0 21 1;
#X connect 20 0 22 1;
#X connect 21 0 23 1;
#X connect 21 0 14 0;
#X connect 22 0 24 1;
#X connect 22 0 15 0;
#X connect 23 0 25 0;
#X connect 24 0 26 0;
#X connect 25 0 2 0;
#X connect 26 0 3 0;
#X connect 30 0 31 0;
#X connect 31 0 34 0;
#X connect 32 0 30 0;
#X connect 34 0 17 0;
